# xmcd
#
# Track frame offsets:
#	182
#	17135
#	37360
#	49262
#	64642
#	78060
#	90467
#	104622
#	114385
#	128682
#
# Disc length: 1897
#
# Revision: 2
# Processed by: cddbd v1.5.1PL0 Copyright (c) Steve Scherf et al.
# Submitted via: CDex 1.51
# Normalized: r0:DSETVAR1,TDELIM( - ),TSWAP
#
DISCID=7d07670a
DTITLE=Various Artist - sweet georgia brown
DYEAR=1900
DGENRE=Jazz
TTITLE0=BENNY GOODMAN - Sweet georgia brown
TTITLE1=GENE KRUPA - Stardust
TTITLE2=CHARLIE SPIVEK - It's always you
TTITLE3=ARTIE SHAW - L OVER COME BACK TO ME
TTITLE4=JIMMY DORSEY - Tangerine
TTITLE5=LES BROWN - Three little words
TTITLE6=JAN GARBAREK - It's a wonderful world
TTITLE7=JERRY GREY - String of pearls
TTITLE8=WOODY HERMAN - Muskrat ramble
TTITLE9=DUKE ELLINTON - Take the "A" train
EXTD=
EXTT0=
EXTT1=
EXTT2=
EXTT3=
EXTT4=
EXTT5=
EXTT6=
EXTT7=
EXTT8=
EXTT9=
PLAYORDER=
